#N canvas 62 39 1350 855 12;
#X obj 438 1255 dac~, f 9;
#N canvas 484 23 956 855 Vocal-Inst 0;
#X obj 304 585 outlet~;
#X obj 366 585 outlet~;
#X obj 127 217 sel 30 32 34 35 37 39 41 42 44 46 47 49 51 53;
#X obj 494 217 sel 54 56 58 59 61 63 65 66 68 70 71 73 75 77 78;
#N canvas 92 26 1135 855 **********Voices-1-2************ 0;
#X obj 12 14 inlet;
#X obj 104 15 inlet;
#X obj 202 17 inlet;
#X obj 290 15 inlet;
#X obj 376 13 inlet;
#X obj 463 12 inlet;
#X obj 552 11 inlet;
#X obj 635 11 inlet;
#X obj 728 12 inlet;
#X obj 816 13 inlet;
#X obj 903 11 inlet;
#X obj 991 10 inlet;
#X obj 13 149 readsf~ 2;
#X obj 105 184 readsf~ 2;
#X obj 201 206 readsf~ 2;
#X obj 287 238 readsf~ 2;
#X obj 371 279 readsf~ 2;
#X obj 449 302 readsf~ 2;
#X obj 532 345 readsf~ 2;
#X obj 610 378 readsf~ 2;
#X obj 858 342 readsf~ 2;
#X obj 940 307 readsf~ 2;
#X obj 1014 275 readsf~ 2;
#X obj 1093 244 readsf~ 2;
#X obj 577 520 outlet~;
#X obj 651 519 outlet~;
#X obj 1171 213 readsf~ 2;
#X obj 1252 180 readsf~ 2;
#X obj 1082 10 inlet;
#X obj 1173 12 inlet;
#X msg 12 110 open samples/Voice-Instr-1.wav \, 1;
#X msg 103 139 open samples/Voice-Instr-2.wav \, 1;
#X msg 201 169 open samples/Voice-Instr-3.wav \, 1;
#X msg 288 208 open samples/Voice-Instr-4.wav \, 1;
#X msg 372 240 open samples/Voice-Instr-5.wav \, 1;
#X msg 449 276 open samples/Voice-Instr-6.wav \, 1;
#X msg 533 307 open samples/Voice-Instr-7.wav \, 1;
#X msg 610 345 open samples/Voice-Instr-8.wav \, 1;
#X msg 738 313 open samples/Voice-Instr-15.wav \, 1;
#X msg 817 278 open samples/Voice-Instr-14.wav \, 1;
#X msg 893 247 open samples/Voice-Instr-12.wav \, 1;
#X msg 971 215 open samples/Voice-Instr-11.wav \, 1;
#X msg 1047 182 open samples/Voice-Instr-10.wav \, 1;
#X msg 1122 149 open samples/Voice-Instr-9.wav \, 1;
#X obj 57 15 inlet;
#X msg 57 40 0;
#X obj 148 14 inlet;
#X msg 148 39 0;
#X obj 245 17 inlet;
#X msg 245 42 0;
#X obj 333 14 inlet;
#X msg 333 39 0;
#X obj 419 13 inlet;
#X msg 419 38 0;
#X obj 507 12 inlet;
#X msg 507 37 0;
#X obj 593 12 inlet;
#X msg 593 37 0;
#X obj 682 12 inlet;
#X msg 682 37 0;
#X obj 771 13 inlet;
#X msg 771 38 0;
#X obj 858 12 inlet;
#X msg 858 37 0;
#X obj 946 10 inlet;
#X msg 946 35 0;
#X obj 1035 10 inlet;
#X msg 1035 35 0;
#X obj 1126 10 inlet;
#X msg 1126 35 0;
#X obj 1220 13 inlet;
#X msg 1220 38 0;
#X connect 0 0 30 0;
#X connect 1 0 31 0;
#X connect 2 0 32 0;
#X connect 3 0 33 0;
#X connect 4 0 34 0;
#X connect 5 0 35 0;
#X connect 6 0 36 0;
#X connect 7 0 37 0;
#X connect 8 0 38 0;
#X connect 9 0 39 0;
#X connect 10 0 40 0;
#X connect 11 0 41 0;
#X connect 12 0 24 0;
#X connect 12 1 25 0;
#X connect 13 0 24 0;
#X connect 13 1 25 0;
#X connect 14 0 24 0;
#X connect 14 1 25 0;
#X connect 15 0 24 0;
#X connect 15 1 25 0;
#X connect 16 0 24 0;
#X connect 16 1 25 0;
#X connect 17 0 24 0;
#X connect 17 1 25 0;
#X connect 18 0 24 0;
#X connect 18 1 25 0;
#X connect 19 0 24 0;
#X connect 19 1 25 0;
#X connect 20 0 24 0;
#X connect 20 1 25 0;
#X connect 21 0 24 0;
#X connect 21 1 25 0;
#X connect 22 0 24 0;
#X connect 22 1 25 0;
#X connect 23 0 24 0;
#X connect 23 1 25 0;
#X connect 26 0 24 0;
#X connect 26 1 25 0;
#X connect 27 0 24 0;
#X connect 27 1 25 0;
#X connect 28 0 42 0;
#X connect 29 0 43 0;
#X connect 30 0 12 0;
#X connect 31 0 13 0;
#X connect 32 0 14 0;
#X connect 33 0 15 0;
#X connect 34 0 16 0;
#X connect 35 0 17 0;
#X connect 36 0 18 0;
#X connect 37 0 19 0;
#X connect 38 0 20 0;
#X connect 39 0 21 0;
#X connect 40 0 22 0;
#X connect 41 0 23 0;
#X connect 42 0 26 0;
#X connect 43 0 27 0;
#X connect 44 0 45 0;
#X connect 45 0 12 0;
#X connect 46 0 47 0;
#X connect 47 0 13 0;
#X connect 48 0 49 0;
#X connect 49 0 14 0;
#X connect 50 0 51 0;
#X connect 51 0 15 0;
#X connect 52 0 53 0;
#X connect 53 0 16 0;
#X connect 54 0 55 0;
#X connect 55 0 17 0;
#X connect 56 0 57 0;
#X connect 57 0 18 0;
#X connect 58 0 59 0;
#X connect 59 0 19 0;
#X connect 60 0 61 0;
#X connect 61 0 20 0;
#X connect 62 0 63 0;
#X connect 63 0 21 0;
#X connect 64 0 65 0;
#X connect 65 0 22 0;
#X connect 66 0 67 0;
#X connect 67 0 23 0;
#X connect 68 0 69 0;
#X connect 69 0 26 0;
#X connect 70 0 71 0;
#X connect 71 0 27 0;
#X restore 156 266 pd **********Voices-1-2************;
#X obj 127 48 inlet;
#X obj 221 49 inlet;
#X obj 221 120 sel 30 32 34 35 37 39 41 42 44 46 47 49 51 53;
#N canvas 254 23 958 855 **************Voices-3-4*****************
0;
#X obj 14 17 inlet;
#X obj 106 18 inlet;
#X obj 204 20 inlet;
#X obj 292 18 inlet;
#X obj 382 18 inlet;
#X obj 471 16 inlet;
#X obj 553 14 inlet;
#X obj 642 14 inlet;
#X obj 732 15 inlet;
#X obj 821 14 inlet;
#X obj 915 10 inlet;
#X obj 1004 10 inlet;
#X obj 16 168 readsf~ 2;
#X obj 108 203 readsf~ 2;
#X obj 204 225 readsf~ 2;
#X obj 290 257 readsf~ 2;
#X obj 374 298 readsf~ 2;
#X obj 452 321 readsf~ 2;
#X obj 535 364 readsf~ 2;
#X obj 614 392 readsf~ 2;
#X obj 945 381 readsf~ 2;
#X obj 982 318 readsf~ 2;
#X obj 1049 265 readsf~ 2;
#X obj 1117 216 readsf~ 2;
#X obj 655 623 outlet~;
#X obj 729 624 outlet~;
#X obj 1096 10 inlet;
#X obj 1182 6 inlet;
#X obj 1188 170 readsf~ 2;
#X obj 1271 121 readsf~ 2;
#X obj 1275 5 inlet;
#X obj 1344 75 readsf~ 2;
#X msg 14 125 open samples/Voice-Instr-17.wav \, 1;
#X msg 106 158 open samples/Voice-Instr-18.wav \, 1;
#X msg 204 188 open samples/Voice-Instr-19.wav \, 1;
#X msg 291 227 open samples/Voice-Instr-20.wav \, 1;
#X msg 375 259 open samples/Voice-Instr-21.wav \, 1;
#X msg 452 295 open samples/Voice-Instr-22.wav \, 1;
#X msg 536 326 open samples/Voice-Instr-23.wav \, 1;
#X msg 614 364 open samples/Voice-Instr-24.wav \, 1;
#X msg 860 342 open samples/Voice-Instr-30.wav \, 1;
#X msg 895 295 open samples/Voice-Instr-29.wav \, 1;
#X msg 940 243 open samples/Voice-Instr-28.wav \, 1;
#X msg 1010 194 open samples/Voice-Instr-27.wav \, 1;
#X msg 1088 146 open samples/Voice-Instr-26.wav \, 1;
#X msg 1154 96 open samples/Voice-Instr-25.wav \, 1;
#X msg 1244 55 open samples/Voice-Instr-24.wav \, 1;
#X obj 59 17 inlet;
#X msg 59 42 0;
#X obj 153 18 inlet;
#X msg 153 43 0;
#X obj 249 18 inlet;
#X msg 249 43 0;
#X obj 336 17 inlet;
#X msg 336 42 0;
#X obj 426 17 inlet;
#X msg 426 42 0;
#X obj 512 17 inlet;
#X msg 512 42 0;
#X obj 597 14 inlet;
#X msg 597 39 0;
#X obj 686 14 inlet;
#X msg 686 39 0;
#X obj 773 16 inlet;
#X msg 773 41 0;
#X obj 866 12 inlet;
#X msg 866 37 0;
#X obj 959 12 inlet;
#X msg 959 37 0;
#X obj 1049 10 inlet;
#X msg 1049 35 0;
#X obj 1139 9 inlet;
#X msg 1139 34 0;
#X obj 1224 6 inlet;
#X msg 1224 31 0;
#X obj 1322 4 inlet;
#X msg 1322 29 0;
#X connect 0 0 32 0;
#X connect 1 0 33 0;
#X connect 2 0 34 0;
#X connect 3 0 35 0;
#X connect 4 0 36 0;
#X connect 5 0 37 0;
#X connect 6 0 38 0;
#X connect 7 0 39 0;
#X connect 8 0 40 0;
#X connect 9 0 41 0;
#X connect 10 0 42 0;
#X connect 11 0 43 0;
#X connect 12 0 24 0;
#X connect 12 1 25 0;
#X connect 13 0 24 0;
#X connect 13 1 25 0;
#X connect 14 0 24 0;
#X connect 14 1 25 0;
#X connect 15 0 24 0;
#X connect 15 1 25 0;
#X connect 16 0 24 0;
#X connect 16 1 25 0;
#X connect 17 0 24 0;
#X connect 17 1 25 0;
#X connect 18 0 24 0;
#X connect 18 1 25 0;
#X connect 19 0 24 0;
#X connect 19 1 25 0;
#X connect 20 0 24 0;
#X connect 20 1 25 0;
#X connect 21 0 24 0;
#X connect 21 1 25 0;
#X connect 22 0 24 0;
#X connect 22 1 25 0;
#X connect 23 0 24 0;
#X connect 23 1 25 0;
#X connect 26 0 44 0;
#X connect 27 0 45 0;
#X connect 28 0 24 0;
#X connect 28 1 25 0;
#X connect 29 0 24 0;
#X connect 29 1 25 0;
#X connect 30 0 46 0;
#X connect 31 0 24 0;
#X connect 31 1 25 0;
#X connect 32 0 12 0;
#X connect 33 0 13 0;
#X connect 34 0 14 0;
#X connect 35 0 15 0;
#X connect 36 0 16 0;
#X connect 37 0 17 0;
#X connect 38 0 18 0;
#X connect 39 0 19 0;
#X connect 40 0 20 0;
#X connect 41 0 21 0;
#X connect 42 0 22 0;
#X connect 43 0 23 0;
#X connect 44 0 28 0;
#X connect 45 0 29 0;
#X connect 46 0 31 0;
#X connect 47 0 48 0;
#X connect 48 0 12 0;
#X connect 49 0 50 0;
#X connect 50 0 13 0;
#X connect 51 0 52 0;
#X connect 52 0 14 0;
#X connect 53 0 54 0;
#X connect 54 0 15 0;
#X connect 55 0 56 0;
#X connect 56 0 16 0;
#X connect 57 0 58 0;
#X connect 58 0 17 0;
#X connect 59 0 60 0;
#X connect 60 0 18 0;
#X connect 61 0 62 0;
#X connect 62 0 19 0;
#X connect 63 0 64 0;
#X connect 64 0 20 0;
#X connect 65 0 66 0;
#X connect 66 0 21 0;
#X connect 67 0 68 0;
#X connect 68 0 22 0;
#X connect 69 0 70 0;
#X connect 70 0 23 0;
#X connect 71 0 72 0;
#X connect 72 0 28 0;
#X connect 73 0 74 0;
#X connect 74 0 29 0;
#X connect 75 0 76 0;
#X connect 76 0 31 0;
#X restore 494 266 pd **************Voices-3-4*****************;
#X obj 551 158 sel 54 56 58 59 61 63 65 66 68 70 71 73 75 77 78;
#X connect 2 0 4 0;
#X connect 2 1 4 2;
#X connect 2 2 4 4;
#X connect 2 3 4 6;
#X connect 2 4 4 8;
#X connect 2 5 4 10;
#X connect 2 6 4 12;
#X connect 2 7 4 14;
#X connect 2 8 4 16;
#X connect 2 9 4 18;
#X connect 2 10 4 20;
#X connect 2 11 4 22;
#X connect 2 12 4 24;
#X connect 2 13 4 26;
#X connect 3 0 8 0;
#X connect 3 1 8 2;
#X connect 3 2 8 4;
#X connect 3 3 8 6;
#X connect 3 4 8 8;
#X connect 3 5 8 10;
#X connect 3 6 8 12;
#X connect 3 7 8 14;
#X connect 3 8 8 16;
#X connect 3 9 8 18;
#X connect 3 10 8 20;
#X connect 3 11 8 22;
#X connect 3 12 8 24;
#X connect 3 13 8 26;
#X connect 3 14 8 28;
#X connect 4 0 0 0;
#X connect 4 1 1 0;
#X connect 5 0 2 0;
#X connect 5 0 3 0;
#X connect 6 0 7 0;
#X connect 6 0 9 0;
#X connect 7 0 4 1;
#X connect 7 1 4 3;
#X connect 7 2 4 5;
#X connect 7 3 4 7;
#X connect 7 4 4 9;
#X connect 7 5 4 11;
#X connect 7 6 4 13;
#X connect 7 7 4 15;
#X connect 7 8 4 17;
#X connect 7 9 4 19;
#X connect 7 10 4 21;
#X connect 7 11 4 23;
#X connect 7 12 4 25;
#X connect 7 13 4 27;
#X connect 8 0 0 0;
#X connect 8 1 1 0;
#X connect 9 0 8 1;
#X connect 9 1 8 3;
#X connect 9 2 8 5;
#X connect 9 3 8 7;
#X connect 9 4 8 9;
#X connect 9 5 8 11;
#X connect 9 6 8 13;
#X connect 9 7 8 15;
#X connect 9 8 8 17;
#X connect 9 9 8 19;
#X connect 9 10 8 21;
#X connect 9 11 8 23;
#X connect 9 12 8 25;
#X connect 9 13 8 27;
#X connect 9 14 8 29;
#X restore 24 395 pd Vocal-Inst;
#X obj 438 877 freeverb~;
#X msg 521 520 roomsize \$1;
#X msg 521 570 damping \$1;
#X msg 521 622 width \$1;
#X msg 521 680 wet \$1;
#X msg 522 730 dry \$1;
#X msg 520 757 print;
#X msg 520 800 freeze \$1;
#X msg 520 843 bypass \$1;
#X obj 521 827 tgl 15 0 empty empty empty 0 -6 0 8 -262144 -1 -1 0
1;
#X obj 521 781 tgl 15 0 empty empty empty 0 -6 0 8 -262144 -1 -1 0
1;
#X obj 525 706 hsl 60 18 0 1 0 1 empty empty dry 2 9 1 12 -225271 -1
-1 2200 0;
#X obj 524 653 hsl 60 18 0 1 0 1 empty empty wet 2 9 1 12 -225271 -1
-1 500 0;
#X obj 524 599 hsl 60 18 0 1 0 1 empty empty width 2 9 1 12 -262131
-1 -1 4500 0;
#X obj 524 547 hsl 60 18 0 2 0 1 empty empty damping 2 9 1 12 -261689
-1 -1 0 0;
#X obj 524 497 hsl 60 18 0.11 1.1 0 1 empty empty roomsize 2 9 1 12
-261689 -1 -1 3900 0;
#X floatatom 604 520 3 0 0 0 - - -;
#X floatatom 601 570 3 0 0 0 - - -;
#X floatatom 582 622 3 0 0 0 - - -;
#X floatatom 571 680 3 0 0 0 - - -;
#X floatatom 576 730 3 0 0 0 - - -;
#N canvas 162 23 1278 855 TC 0;
#X obj 304 585 outlet~;
#X obj 366 585 outlet~;
#X obj 128 217 sel 30 32 34 35 37 39 41 42 44 46 47 49 51 53;
#X obj 494 217 sel 54 56 58 59 61 63 65 66 68 70 71 73 75 77 78;
#X obj 132 88 inlet;
#X obj 318 85 inlet;
#X obj 174 160 sel 30 32 34 35 37 39 41 42 44 46 47 49 51 53;
#N canvas 482 23 958 855 **************octave1-2**************** 0
;
#X obj 14 17 inlet;
#X obj 106 18 inlet;
#X obj 204 20 inlet;
#X obj 292 18 inlet;
#X obj 381 16 inlet;
#X obj 469 15 inlet;
#X obj 557 14 inlet;
#X obj 642 17 inlet;
#X obj 734 18 inlet;
#X obj 874 28 inlet;
#X obj 1015 32 inlet;
#X obj 1157 33 inlet;
#X obj 16 94 readsf~ 2;
#X obj 108 129 readsf~ 2;
#X obj 204 151 readsf~ 2;
#X obj 290 183 readsf~ 2;
#X obj 374 224 readsf~ 2;
#X obj 452 247 readsf~ 2;
#X obj 535 290 readsf~ 2;
#X obj 614 323 readsf~ 2;
#X obj 746 289 readsf~ 2;
#X obj 879 248 readsf~ 2;
#X obj 1017 220 readsf~ 2;
#X obj 1157 179 readsf~ 2;
#X obj 580 465 outlet~;
#X obj 654 464 outlet~;
#X obj 1296 146 readsf~ 2;
#X obj 1437 130 readsf~ 2;
#X obj 1293 38 inlet;
#X obj 1438 28 inlet;
#X msg 15 64 open samples/TC-1.wav \, 1;
#X msg 108 95 open samples/TC-2.wav \, 1;
#X msg 205 123 open samples/TC-3.wav \, 1;
#X msg 291 153 open samples/TC-4.wav \, 1;
#X msg 375 185 open samples/TC-5.wav \, 1;
#X msg 452 221 open samples/TC-6.wav \, 1;
#X msg 536 252 open samples/TC-7.wav \, 1;
#X msg 615 293 open samples/TC-8.wav \, 1;
#X msg 747 250 open samples/TC-9.wav \, 1;
#X msg 879 221 open samples/TC-10.wav \, 1;
#X msg 1018 182 open samples/TC-11.wav \, 1;
#X msg 1158 149 open samples/TC-12.wav \, 1;
#X msg 1297 108 open samples/TC-13.wav \, 1;
#X msg 1437 75 open samples/TC-14.wav \, 1;
#X obj 61 16 inlet;
#X msg 61 41 0;
#X obj 156 15 inlet;
#X msg 156 40 0;
#X obj 248 17 inlet;
#X msg 248 42 0;
#X obj 336 19 inlet;
#X msg 336 44 0;
#X obj 424 16 inlet;
#X msg 424 41 0;
#X obj 511 14 inlet;
#X msg 511 39 0;
#X obj 598 14 inlet;
#X msg 598 39 0;
#X obj 687 16 inlet;
#X msg 687 41 0;
#X obj 779 18 inlet;
#X msg 779 43 0;
#X obj 922 27 inlet;
#X msg 922 52 0;
#X obj 1062 31 inlet;
#X msg 1062 56 0;
#X obj 1205 33 inlet;
#X msg 1205 58 0;
#X obj 1340 37 inlet;
#X msg 1340 62 0;
#X obj 1495 26 inlet;
#X msg 1495 51 0;
#X connect 0 0 30 0;
#X connect 1 0 31 0;
#X connect 2 0 32 0;
#X connect 3 0 33 0;
#X connect 4 0 34 0;
#X connect 5 0 35 0;
#X connect 6 0 36 0;
#X connect 7 0 37 0;
#X connect 8 0 38 0;
#X connect 9 0 39 0;
#X connect 10 0 40 0;
#X connect 11 0 41 0;
#X connect 12 0 24 0;
#X connect 12 1 25 0;
#X connect 13 0 24 0;
#X connect 13 1 25 0;
#X connect 14 0 24 0;
#X connect 14 1 25 0;
#X connect 15 0 24 0;
#X connect 15 1 25 0;
#X connect 16 0 24 0;
#X connect 16 1 25 0;
#X connect 17 0 24 0;
#X connect 17 1 25 0;
#X connect 18 0 24 0;
#X connect 18 1 25 0;
#X connect 19 0 24 0;
#X connect 19 1 25 0;
#X connect 20 0 24 0;
#X connect 20 1 25 0;
#X connect 21 0 24 0;
#X connect 21 1 25 0;
#X connect 22 0 24 0;
#X connect 22 1 25 0;
#X connect 23 0 24 0;
#X connect 23 1 25 0;
#X connect 26 0 24 0;
#X connect 26 1 25 0;
#X connect 27 0 24 0;
#X connect 27 1 25 0;
#X connect 28 0 42 0;
#X connect 29 0 43 0;
#X connect 30 0 12 0;
#X connect 31 0 13 0;
#X connect 32 0 14 0;
#X connect 33 0 15 0;
#X connect 34 0 16 0;
#X connect 35 0 17 0;
#X connect 36 0 18 0;
#X connect 37 0 19 0;
#X connect 38 0 20 0;
#X connect 39 0 21 0;
#X connect 40 0 22 0;
#X connect 41 0 23 0;
#X connect 42 0 26 0;
#X connect 43 0 27 0;
#X connect 44 0 45 0;
#X connect 45 0 12 0;
#X connect 46 0 47 0;
#X connect 47 0 13 0;
#X connect 48 0 49 0;
#X connect 49 0 14 0;
#X connect 50 0 51 0;
#X connect 51 0 15 0;
#X connect 52 0 53 0;
#X connect 53 0 16 0;
#X connect 54 0 55 0;
#X connect 55 0 17 0;
#X connect 56 0 57 0;
#X connect 57 0 18 0;
#X connect 58 0 59 0;
#X connect 59 0 19 0;
#X connect 60 0 61 0;
#X connect 61 0 20 0;
#X connect 62 0 63 0;
#X connect 63 0 21 0;
#X connect 64 0 65 0;
#X connect 65 0 22 0;
#X connect 66 0 67 0;
#X connect 67 0 23 0;
#X connect 68 0 69 0;
#X connect 69 0 26 0;
#X connect 70 0 71 0;
#X connect 71 0 27 0;
#X restore 156 266 pd **************octave1-2****************;
#X obj 556 161 sel 54 56 58 59 61 63 65 66 68 70 71 73 75 77 78;
#N canvas 342 23 958 855 ***************octave3-4*****************
0;
#X obj 14 17 inlet;
#X obj 112 19 inlet;
#X obj 204 20 inlet;
#X obj 292 18 inlet;
#X obj 380 16 inlet;
#X obj 472 18 inlet;
#X obj 560 16 inlet;
#X obj 654 15 inlet;
#X obj 745 14 inlet;
#X obj 874 28 inlet;
#X obj 1015 32 inlet;
#X obj 1157 33 inlet;
#X obj 16 94 readsf~ 2;
#X obj 108 129 readsf~ 2;
#X obj 204 151 readsf~ 2;
#X obj 290 183 readsf~ 2;
#X obj 374 224 readsf~ 2;
#X obj 452 247 readsf~ 2;
#X obj 535 290 readsf~ 2;
#X obj 614 318 readsf~ 2;
#X obj 746 289 readsf~ 2;
#X obj 879 248 readsf~ 2;
#X obj 1017 220 readsf~ 2;
#X obj 1157 179 readsf~ 2;
#X obj 580 465 outlet~;
#X obj 654 464 outlet~;
#X obj 1301 37 inlet;
#X obj 1442 32 inlet;
#X obj 1295 150 readsf~ 2;
#X obj 1435 109 readsf~ 2;
#X obj 1577 32 inlet;
#X obj 1576 112 readsf~ 2;
#X msg 14 64 open samples/TC-15.wav \, 1;
#X msg 110 90 open samples/TC-29.wav \, 1;
#X msg 204 114 open samples/TC-28.wav \, 1;
#X msg 291 153 open samples/TC-27.wav \, 1;
#X msg 375 185 open samples/TC-26.wav \, 1;
#X msg 452 221 open samples/TC-25.wav \, 1;
#X msg 536 252 open samples/TC-24.wav \, 1;
#X msg 615 288 open samples/TC-23.wav \, 1;
#X msg 747 250 open samples/TC-22.wav \, 1;
#X msg 879 221 open samples/TC-21.wav \, 1;
#X msg 1018 182 open samples/TC-20.wav \, 1;
#X msg 1158 149 open samples/TC-19.wav \, 1;
#X msg 1295 112 open samples/TC-18.wav \, 1;
#X msg 1436 79 open samples/TC-17.wav \, 1;
#X msg 1577 82 open samples/TC-16.wav \, 1;
#X obj 68 19 inlet;
#X msg 68 44 0;
#X obj 158 16 inlet;
#X msg 158 41 0;
#X obj 248 20 inlet;
#X msg 248 45 0;
#X obj 334 18 inlet;
#X msg 334 43 0;
#X obj 426 17 inlet;
#X msg 426 42 0;
#X obj 514 16 inlet;
#X msg 514 41 0;
#X obj 605 14 inlet;
#X msg 605 39 0;
#X obj 698 16 inlet;
#X msg 698 41 0;
#X obj 790 13 inlet;
#X msg 790 38 0;
#X obj 922 27 inlet;
#X msg 922 52 0;
#X obj 1060 31 inlet;
#X msg 1060 56 0;
#X obj 1202 31 inlet;
#X msg 1202 56 0;
#X obj 1349 36 inlet;
#X msg 1349 61 0;
#X obj 1493 32 inlet;
#X msg 1493 57 0;
#X obj 1637 31 inlet;
#X msg 1637 56 0;
#X connect 0 0 32 0;
#X connect 1 0 33 0;
#X connect 2 0 34 0;
#X connect 3 0 35 0;
#X connect 4 0 36 0;
#X connect 5 0 37 0;
#X connect 6 0 38 0;
#X connect 7 0 39 0;
#X connect 8 0 40 0;
#X connect 9 0 41 0;
#X connect 10 0 42 0;
#X connect 11 0 43 0;
#X connect 12 0 24 0;
#X connect 12 1 25 0;
#X connect 13 0 24 0;
#X connect 13 1 25 0;
#X connect 14 0 24 0;
#X connect 14 1 25 0;
#X connect 15 0 24 0;
#X connect 15 1 25 0;
#X connect 16 0 24 0;
#X connect 16 1 25 0;
#X connect 17 0 24 0;
#X connect 17 1 25 0;
#X connect 18 0 24 0;
#X connect 18 1 25 0;
#X connect 19 0 24 0;
#X connect 19 1 25 0;
#X connect 20 0 24 0;
#X connect 20 1 25 0;
#X connect 21 0 24 0;
#X connect 21 1 25 0;
#X connect 22 0 24 0;
#X connect 22 1 25 0;
#X connect 23 0 24 0;
#X connect 23 1 25 0;
#X connect 26 0 44 0;
#X connect 27 0 45 0;
#X connect 28 0 24 0;
#X connect 28 1 25 0;
#X connect 29 0 24 0;
#X connect 29 1 25 0;
#X connect 30 0 46 0;
#X connect 31 0 24 0;
#X connect 31 1 25 0;
#X connect 32 0 12 0;
#X connect 33 0 13 0;
#X connect 34 0 14 0;
#X connect 35 0 15 0;
#X connect 36 0 16 0;
#X connect 37 0 17 0;
#X connect 38 0 18 0;
#X connect 39 0 19 0;
#X connect 40 0 20 0;
#X connect 41 0 21 0;
#X connect 42 0 22 0;
#X connect 43 0 23 0;
#X connect 44 0 28 0;
#X connect 45 0 29 0;
#X connect 46 0 31 0;
#X connect 47 0 48 0;
#X connect 48 0 12 0;
#X connect 49 0 50 0;
#X connect 50 0 13 0;
#X connect 51 0 52 0;
#X connect 52 0 14 0;
#X connect 53 0 54 0;
#X connect 54 0 15 0;
#X connect 55 0 56 0;
#X connect 56 0 16 0;
#X connect 57 0 58 0;
#X connect 58 0 17 0;
#X connect 59 0 60 0;
#X connect 60 0 18 0;
#X connect 61 0 62 0;
#X connect 62 0 19 0;
#X connect 63 0 64 0;
#X connect 64 0 20 0;
#X connect 65 0 66 0;
#X connect 66 0 21 0;
#X connect 67 0 68 0;
#X connect 68 0 22 0;
#X connect 69 0 70 0;
#X connect 70 0 23 0;
#X connect 71 0 72 0;
#X connect 72 0 28 0;
#X connect 73 0 74 0;
#X connect 74 0 29 0;
#X connect 75 0 76 0;
#X connect 76 0 31 0;
#X restore 494 266 pd ***************octave3-4*****************;
#X connect 2 0 7 0;
#X connect 2 1 7 2;
#X connect 2 2 7 4;
#X connect 2 3 7 6;
#X connect 2 4 7 8;
#X connect 2 5 7 10;
#X connect 2 6 7 12;
#X connect 2 7 7 14;
#X connect 2 8 7 16;
#X connect 2 9 7 18;
#X connect 2 10 7 20;
#X connect 2 11 7 22;
#X connect 2 12 7 24;
#X connect 2 13 7 26;
#X connect 3 0 9 0;
#X connect 3 1 9 2;
#X connect 3 2 9 4;
#X connect 3 3 9 6;
#X connect 3 4 9 8;
#X connect 3 5 9 10;
#X connect 3 6 9 12;
#X connect 3 7 9 14;
#X connect 3 8 9 16;
#X connect 3 9 9 18;
#X connect 3 10 9 20;
#X connect 3 11 9 22;
#X connect 3 12 9 24;
#X connect 3 13 9 26;
#X connect 3 14 9 28;
#X connect 4 0 2 0;
#X connect 4 0 3 0;
#X connect 5 0 6 0;
#X connect 5 0 8 0;
#X connect 6 0 7 1;
#X connect 6 1 7 3;
#X connect 6 2 7 5;
#X connect 6 3 7 7;
#X connect 6 4 7 9;
#X connect 6 5 7 11;
#X connect 6 6 7 13;
#X connect 6 7 7 15;
#X connect 6 8 7 17;
#X connect 6 9 7 19;
#X connect 6 10 7 21;
#X connect 6 11 7 23;
#X connect 6 12 7 25;
#X connect 6 13 7 27;
#X connect 7 0 0 0;
#X connect 7 1 1 0;
#X connect 8 0 9 1;
#X connect 8 1 9 3;
#X connect 8 2 9 5;
#X connect 8 3 9 7;
#X connect 8 4 9 9;
#X connect 8 5 9 11;
#X connect 8 6 9 13;
#X connect 8 7 9 15;
#X connect 8 8 9 17;
#X connect 8 9 9 19;
#X connect 8 10 9 21;
#X connect 8 11 9 23;
#X connect 8 12 9 25;
#X connect 8 13 9 27;
#X connect 8 14 9 29;
#X connect 9 0 0 0;
#X connect 9 1 1 0;
#X restore 264 395 pd TC;
#X obj 264 514 *~;
#X obj 296 514 *~;
#X obj 25 517 *~;
#X obj 113 516 *~;
#X floatatom 130 420 5 0 1 0 - - -;
#X floatatom 386 425 5 0 1 0 - - -;
#X obj 386 283 vsl 15 128 0 1 0 0 empty empty empty 0 -9 0 10 -232576
-1 -1 8255 1;
#X obj 130 281 vsl 15 128 0 1 0 0 empty empty empty 0 -9 0 10 -232576
-1 -1 7620 1;
#X msg 387 129 \; pd dsp \$1;
#X obj 387 104 tgl 15 0 empty empty empty 0 -6 0 8 -262144 -1 -1 1
1;
#X msg 386 192 midi-dialog 1 0 0 0 0 0 0 0 0 0 0 0 0 0 0 0 0 0 2 2
;
#X obj 386 166 loadbang;
#X obj 386 215 s pd;
#X msg 130 252 0.6;
#X msg 386 255 0.65;
#X obj 130 28 loadbang;
#X obj 264 272 notein 2;
#X obj 24 269 notein 1;
#X obj 811 81 bng 15 250 50 0 empty empty empty 17 7 0 10 -262144 -1
-1;
#X obj 811 208 oscparse;
#X obj 811 252 list trim;
#X msg 811 120 listen 51230;
#X obj 811 164 netreceive -u -b;
#X obj 783 488 bng 15 250 50 0 empty empty empty 17 7 0 10 -262144
-1 -1;
#X msg 969 526 open \$1 \, 1;
#X obj 811 744 readsf~ 2;
#X obj 812 957 *~;
#X obj 842 958 *~;
#X floatatom 916 877 5 0 1 0 - - -;
#X obj 916 735 vsl 15 128 0 1 0 0 empty empty empty 0 -9 0 10 -232576
-1 -1 8255 1;
#X msg 916 707 0.65;
#X obj 931 672 loadbang;
#X obj 783 512 bng 15 250 50 0 empty empty empty 17 7 0 10 -262144
-1 -1;
#X text 670 486 Stop narrator;
#X text 670 509 Start narrator;
#X obj 969 492 unpack s;
#X msg 811 547 0;
#X text 24 234 TEAM HUMAN;
#X text 259 233 TEAM ROBOT;
#X text 512 463 REVERB FX;
#X text 670 442 NARRATOR;
#X obj 811 443 route reset mute unmute;
#X msg 863 547 0;
#X obj 811 296 route audio note;
#X obj 865 330 route human robot;
#X text 562 21 Tiny Chronicler @( * O * )@;
#X obj 16 335 spigot;
#X obj 69 335 spigot;
#X obj 80 300 == 0;
#X obj 252 338 spigot;
#X obj 305 338 spigot;
#X obj 316 303 == 0;
#X connect 1 0 26 0;
#X connect 1 1 27 0;
#X connect 2 0 0 0;
#X connect 2 1 0 1;
#X connect 3 0 2 0;
#X connect 4 0 2 0;
#X connect 5 0 2 0;
#X connect 6 0 2 0;
#X connect 7 0 2 0;
#X connect 8 0 2 0;
#X connect 9 0 2 0;
#X connect 10 0 2 0;
#X connect 11 0 10 0;
#X connect 12 0 9 0;
#X connect 13 0 7 0;
#X connect 13 0 22 0;
#X connect 14 0 6 0;
#X connect 14 0 21 0;
#X connect 15 0 5 0;
#X connect 15 0 20 0;
#X connect 16 0 4 0;
#X connect 16 0 19 0;
#X connect 17 0 3 0;
#X connect 17 0 18 0;
#X connect 23 0 24 0;
#X connect 23 1 25 0;
#X connect 24 0 2 0;
#X connect 25 0 2 1;
#X connect 26 0 2 0;
#X connect 27 0 2 1;
#X connect 28 0 26 1;
#X connect 28 0 27 1;
#X connect 29 0 24 1;
#X connect 29 0 25 1;
#X connect 30 0 29 0;
#X connect 31 0 28 0;
#X connect 33 0 32 0;
#X connect 34 0 36 0;
#X connect 35 0 34 0;
#X connect 37 0 31 0;
#X connect 38 0 30 0;
#X connect 39 0 37 0;
#X connect 39 0 38 0;
#X connect 39 0 33 0;
#X connect 39 0 42 0;
#X connect 40 0 73 0;
#X connect 40 0 74 0;
#X connect 40 1 75 0;
#X connect 40 1 73 1;
#X connect 41 0 70 0;
#X connect 41 0 71 0;
#X connect 41 1 72 0;
#X connect 41 1 70 1;
#X connect 42 0 45 0;
#X connect 43 0 44 0;
#X connect 44 0 67 0;
#X connect 45 0 46 0;
#X connect 46 0 43 0;
#X connect 48 0 49 0;
#X connect 49 0 50 0;
#X connect 49 1 51 0;
#X connect 50 0 0 0;
#X connect 51 0 0 1;
#X connect 52 0 50 1;
#X connect 52 0 51 1;
#X connect 53 0 52 0;
#X connect 54 0 53 0;
#X connect 55 0 54 0;
#X connect 59 0 48 0;
#X connect 60 0 49 0;
#X connect 65 0 47 0;
#X connect 65 0 60 0;
#X connect 65 1 66 0;
#X connect 65 2 54 0;
#X connect 65 3 59 0;
#X connect 65 3 56 0;
#X connect 66 0 53 0;
#X connect 67 0 65 0;
#X connect 67 1 68 0;
#X connect 68 0 1 0;
#X connect 68 1 23 0;
#X connect 70 0 1 0;
#X connect 71 0 1 1;
#X connect 72 0 71 1;
#X connect 73 0 23 0;
#X connect 74 0 23 1;
#X connect 75 0 74 1;
