#N canvas 50 -991 596 713 12;
#X obj 332 490 dac~;
#N canvas -240 -1057 1183 696 Vocal-Inst 0;
#X obj 304 585 outlet~;
#X obj 366 584 outlet~;
#X floatatom 14 58 5 0 0 0 - - -;
#X floatatom 69 58 5 0 0 0 - - -;
#X obj 14 110 stripnote, f 11;
#X obj 14 84 pack 1 1;
#X obj 14 10 notein 1;
#X obj 127 217 sel 30 32 34 35 37 39 41 42 44 46 47 49 51 53;
#X obj 494 210 sel 54 56 58 59 61 63 65 66 68 70 71 73 75 77 78;
#N canvas 0 23 1440 558 **********Voices-1-2************ 0;
#X obj 12 14 inlet;
#X obj 104 15 inlet;
#X obj 202 17 inlet;
#X obj 290 15 inlet;
#X obj 368 19 inlet;
#X obj 450 23 inlet;
#X obj 533 23 inlet;
#X obj 610 24 inlet;
#X obj 742 25 inlet;
#X obj 820 25 inlet;
#X obj 894 21 inlet;
#X obj 969 25 inlet;
#X obj 13 149 readsf~ 2;
#X obj 105 184 readsf~ 2;
#X obj 201 206 readsf~ 2;
#X obj 287 238 readsf~ 2;
#X obj 371 279 readsf~ 2;
#X obj 449 302 readsf~ 2;
#X obj 532 345 readsf~ 2;
#X obj 611 378 readsf~ 2;
#X obj 858 342 readsf~ 2;
#X obj 940 307 readsf~ 2;
#X obj 1014 275 readsf~ 2;
#X obj 1093 244 readsf~ 2;
#X obj 577 520 outlet~;
#X obj 651 519 outlet~;
#X obj 1171 213 readsf~ 2;
#X obj 1252 180 readsf~ 2;
#X obj 1048 28 inlet;
#X obj 1122 30 inlet;
#X msg 12 110 open Voice-Instr-1.wav \, 1;
#X msg 103 139 open Voice-Instr-2.wav \, 1;
#X msg 201 169 open Voice-Instr-3.wav \, 1;
#X msg 288 208 open Voice-Instr-4.wav \, 1;
#X msg 372 240 open Voice-Instr-5.wav \, 1;
#X msg 449 276 open Voice-Instr-6.wav \, 1;
#X msg 533 307 open Voice-Instr-7.wav \, 1;
#X msg 610 345 open Voice-Instr-8.wav \, 1;
#X msg 738 313 open Voice-Instr-15.wav \, 1;
#X msg 817 278 open Voice-Instr-14.wav \, 1;
#X msg 893 247 open Voice-Instr-12.wav \, 1;
#X msg 971 215 open Voice-Instr-11.wav \, 1;
#X msg 1047 182 open Voice-Instr-10.wav \, 1;
#X msg 1121 149 open Voice-Instr-9.wav \, 1;
#X connect 0 0 30 0;
#X connect 1 0 31 0;
#X connect 2 0 32 0;
#X connect 3 0 33 0;
#X connect 4 0 34 0;
#X connect 5 0 35 0;
#X connect 6 0 36 0;
#X connect 7 0 37 0;
#X connect 8 0 38 0;
#X connect 9 0 39 0;
#X connect 10 0 40 0;
#X connect 11 0 41 0;
#X connect 12 0 24 0;
#X connect 12 1 25 0;
#X connect 13 0 24 0;
#X connect 13 1 25 0;
#X connect 14 0 24 0;
#X connect 14 1 25 0;
#X connect 15 0 24 0;
#X connect 15 1 25 0;
#X connect 16 0 24 0;
#X connect 16 1 25 0;
#X connect 17 0 24 0;
#X connect 17 1 25 0;
#X connect 18 0 24 0;
#X connect 18 1 25 0;
#X connect 19 0 24 0;
#X connect 19 1 25 0;
#X connect 20 0 24 0;
#X connect 20 1 25 0;
#X connect 21 0 24 0;
#X connect 21 1 25 0;
#X connect 22 0 24 0;
#X connect 22 1 25 0;
#X connect 23 0 24 0;
#X connect 23 1 25 0;
#X connect 26 0 24 0;
#X connect 26 1 25 0;
#X connect 27 0 24 0;
#X connect 27 1 25 0;
#X connect 28 0 42 0;
#X connect 29 0 43 0;
#X connect 30 0 12 0;
#X connect 31 0 13 0;
#X connect 32 0 14 0;
#X connect 33 0 15 0;
#X connect 34 0 16 0;
#X connect 35 0 17 0;
#X connect 36 0 18 0;
#X connect 37 0 19 0;
#X connect 38 0 20 0;
#X connect 39 0 21 0;
#X connect 40 0 22 0;
#X connect 41 0 23 0;
#X connect 42 0 26 0;
#X connect 43 0 27 0;
#X restore 156 266 pd **********Voices-1-2************;
#N canvas 0 462 1440 558 **********Voices-3-4************ 0;
#X obj 14 17 inlet;
#X obj 106 18 inlet;
#X obj 204 20 inlet;
#X obj 292 18 inlet;
#X obj 370 22 inlet;
#X obj 452 26 inlet;
#X obj 535 26 inlet;
#X obj 612 27 inlet;
#X obj 744 28 inlet;
#X obj 817 30 inlet;
#X obj 892 34 inlet;
#X obj 968 34 inlet;
#X obj 16 94 readsf~ 2;
#X obj 108 129 readsf~ 2;
#X obj 204 151 readsf~ 2;
#X obj 290 183 readsf~ 2;
#X obj 374 224 readsf~ 2;
#X obj 452 247 readsf~ 2;
#X obj 535 290 readsf~ 2;
#X obj 614 318 readsf~ 2;
#X obj 812 289 readsf~ 2;
#X obj 932 250 readsf~ 2;
#X obj 1014 220 readsf~ 2;
#X obj 1091 189 readsf~ 2;
#X obj 580 465 outlet~;
#X obj 654 464 outlet~;
#X obj 1046 37 inlet;
#X obj 1119 40 inlet;
#X obj 1167 159 readsf~ 2;
#X obj 1246 129 readsf~ 2;
#X obj 1202 37 inlet;
#X obj 1324 92 readsf~ 2;
#X msg 14 51 open Voice-Instr-17.wav \, 1;
#X msg 106 84 open Voice-Instr-18.wav \, 1;
#X msg 204 114 open Voice-Instr-19.wav \, 1;
#X msg 291 153 open Voice-Instr-20.wav \, 1;
#X msg 375 185 open Voice-Instr-21.wav \, 1;
#X msg 452 221 open Voice-Instr-22.wav \, 1;
#X msg 536 252 open Voice-Instr-23.wav \, 1;
#X msg 614 290 open Voice-Instr-24.wav \, 1;
#X msg 735 252 open Voice-Instr-30.wav \, 1;
#X msg 813 222 open Voice-Instr-29.wav \, 1;
#X msg 892 190 open Voice-Instr-28.wav \, 1;
#X msg 968 159 open Voice-Instr-27.wav \, 1;
#X msg 1046 131 open Voice-Instr-26.wav \, 1;
#X msg 1123 99 open Voice-Instr-25.wav \, 1;
#X msg 1202 67 open Voice-Instr-24.wav \, 1;
#X connect 0 0 32 0;
#X connect 1 0 33 0;
#X connect 2 0 34 0;
#X connect 3 0 35 0;
#X connect 4 0 36 0;
#X connect 5 0 37 0;
#X connect 6 0 38 0;
#X connect 7 0 39 0;
#X connect 8 0 40 0;
#X connect 9 0 41 0;
#X connect 10 0 42 0;
#X connect 11 0 43 0;
#X connect 12 0 24 0;
#X connect 12 1 25 0;
#X connect 13 0 24 0;
#X connect 13 1 25 0;
#X connect 14 0 24 0;
#X connect 14 1 25 0;
#X connect 15 0 24 0;
#X connect 15 1 25 0;
#X connect 16 0 24 0;
#X connect 16 1 25 0;
#X connect 17 0 24 0;
#X connect 17 1 25 0;
#X connect 18 0 24 0;
#X connect 18 1 25 0;
#X connect 19 0 24 0;
#X connect 19 1 25 0;
#X connect 20 0 24 0;
#X connect 20 1 25 0;
#X connect 21 0 24 0;
#X connect 21 1 25 0;
#X connect 22 0 24 0;
#X connect 22 1 25 0;
#X connect 23 0 24 0;
#X connect 23 1 25 0;
#X connect 26 0 44 0;
#X connect 27 0 45 0;
#X connect 28 0 24 0;
#X connect 28 1 25 0;
#X connect 29 0 24 0;
#X connect 29 1 25 0;
#X connect 30 0 46 0;
#X connect 31 0 24 0;
#X connect 31 1 25 0;
#X connect 32 0 12 0;
#X connect 33 0 13 0;
#X connect 34 0 14 0;
#X connect 35 0 15 0;
#X connect 36 0 16 0;
#X connect 37 0 17 0;
#X connect 38 0 18 0;
#X connect 39 0 19 0;
#X connect 40 0 20 0;
#X connect 41 0 21 0;
#X connect 42 0 22 0;
#X connect 43 0 23 0;
#X connect 44 0 28 0;
#X connect 45 0 29 0;
#X connect 46 0 31 0;
#X restore 496 264 pd **********Voices-3-4************;
#X connect 2 0 5 0;
#X connect 3 0 5 1;
#X connect 4 0 7 0;
#X connect 4 0 8 0;
#X connect 5 0 4 0;
#X connect 6 0 2 0;
#X connect 6 1 3 0;
#X connect 7 0 9 0;
#X connect 7 1 9 1;
#X connect 7 2 9 2;
#X connect 7 3 9 3;
#X connect 7 4 9 4;
#X connect 7 5 9 5;
#X connect 7 6 9 6;
#X connect 7 7 9 7;
#X connect 7 8 9 8;
#X connect 7 9 9 9;
#X connect 7 10 9 10;
#X connect 7 11 9 11;
#X connect 7 12 9 12;
#X connect 7 13 9 13;
#X connect 8 0 10 0;
#X connect 8 1 10 1;
#X connect 8 2 10 2;
#X connect 8 3 10 3;
#X connect 8 4 10 4;
#X connect 8 5 10 5;
#X connect 8 6 10 6;
#X connect 8 7 10 7;
#X connect 8 8 10 8;
#X connect 8 9 10 9;
#X connect 8 10 10 10;
#X connect 8 11 10 11;
#X connect 8 12 10 12;
#X connect 8 13 10 13;
#X connect 8 14 10 14;
#X connect 9 0 0 0;
#X connect 9 1 1 0;
#X connect 10 0 0 0;
#X connect 10 1 1 0;
#X restore 24 274 pd Vocal-Inst;
#X obj 312 430 freeverb~;
#X msg 407 81 roomsize \$1;
#X msg 411 131 damping \$1;
#X msg 414 183 width \$1;
#X msg 419 241 wet \$1;
#X msg 425 291 dry \$1;
#X msg 423 318 print;
#X msg 424 361 freeze \$1;
#X msg 424 407 bypass \$1;
#X obj 424 388 tgl 15 0 empty empty empty 0 -6 0 8 -262144 -1 -1 0
1;
#X obj 424 342 tgl 15 0 empty empty empty 0 -6 0 8 -262144 -1 -1 0
1;
#X obj 431 267 hsl 60 18 0 1 0 1 empty empty dry 2 9 1 12 -225271 -1
-1 2200 0;
#X obj 427 214 hsl 60 18 0 1 0 1 empty empty wet 2 9 1 12 -225271 -1
-1 500 0;
#X obj 425 160 hsl 60 18 0 1 0 1 empty empty width 2 9 1 12 -262131
-1 -1 4500 0;
#X obj 423 108 hsl 60 18 0 2 0 1 empty empty damping 2 9 1 12 -261689
-1 -1 0 0;
#X obj 419 58 hsl 60 18 0.11 1.1 0 1 empty empty roomsize 2 9 1 12
-261689 -1 -1 3900 0;
#X floatatom 499 81 3 0 0 0 - - -;
#X floatatom 500 131 3 0 0 0 - - -;
#X floatatom 483 182 3 0 0 0 - - -;
#X floatatom 474 241 3 0 0 0 - - -;
#X floatatom 482 288 3 0 0 0 - - -;
#N canvas 659 -1036 1006 695 TC 0;
#X obj 304 585 outlet~;
#X obj 366 584 outlet~;
#X floatatom 14 58 5 0 0 0 - - -;
#X floatatom 69 58 5 0 0 0 - - -;
#X obj 14 110 stripnote, f 11;
#X obj 14 84 pack 1 1;
#N canvas 0 23 1440 558 **********octave1-2************ 0;
#X obj 14 17 inlet;
#X obj 106 18 inlet;
#X obj 204 20 inlet;
#X obj 292 18 inlet;
#X obj 370 22 inlet;
#X obj 452 26 inlet;
#X obj 535 26 inlet;
#X obj 612 27 inlet;
#X obj 744 28 inlet;
#X obj 874 28 inlet;
#X obj 1015 32 inlet;
#X obj 1157 33 inlet;
#X obj 16 94 readsf~ 2;
#X obj 108 129 readsf~ 2;
#X obj 204 151 readsf~ 2;
#X obj 290 183 readsf~ 2;
#X msg 14 51 open TC-1.wav \, 1;
#X msg 106 84 open TC-2.wav \, 1;
#X msg 204 114 open TC-3.wav \, 1;
#X msg 291 153 open TC-4.wav \, 1;
#X obj 374 224 readsf~ 2;
#X obj 452 247 readsf~ 2;
#X obj 535 290 readsf~ 2;
#X obj 614 323 readsf~ 2;
#X msg 375 185 open TC-5.wav \, 1;
#X msg 452 221 open TC-6.wav \, 1;
#X msg 536 252 open TC-7.wav \, 1;
#X obj 746 289 readsf~ 2;
#X obj 879 248 readsf~ 2;
#X obj 1017 220 readsf~ 2;
#X obj 1157 179 readsf~ 2;
#X obj 580 465 outlet~;
#X obj 654 464 outlet~;
#X obj 1296 146 readsf~ 2;
#X obj 1436 105 readsf~ 2;
#X obj 1293 38 inlet;
#X obj 1437 42 inlet;
#X msg 615 293 open TC-8.wav \, 1;
#X msg 747 250 open TC-9.wav \, 1;
#X msg 879 221 open TC-10.wav \, 1;
#X msg 1018 182 open TC-11.wav \, 1;
#X msg 1158 149 open TC-12.wav \, 1;
#X msg 1297 108 open TC-13.wav \, 1;
#X msg 1437 75 open TC-14.wav \, 1;
#X connect 0 0 16 0;
#X connect 1 0 17 0;
#X connect 2 0 18 0;
#X connect 3 0 19 0;
#X connect 4 0 24 0;
#X connect 5 0 25 0;
#X connect 6 0 26 0;
#X connect 7 0 37 0;
#X connect 8 0 38 0;
#X connect 9 0 39 0;
#X connect 10 0 40 0;
#X connect 11 0 41 0;
#X connect 12 0 31 0;
#X connect 12 1 32 0;
#X connect 13 0 31 0;
#X connect 13 1 32 0;
#X connect 14 0 31 0;
#X connect 14 1 32 0;
#X connect 15 0 31 0;
#X connect 15 1 32 0;
#X connect 16 0 12 0;
#X connect 17 0 13 0;
#X connect 18 0 14 0;
#X connect 19 0 15 0;
#X connect 20 0 31 0;
#X connect 20 1 32 0;
#X connect 21 0 31 0;
#X connect 21 1 32 0;
#X connect 22 0 31 0;
#X connect 22 1 32 0;
#X connect 23 0 31 0;
#X connect 23 1 32 0;
#X connect 24 0 20 0;
#X connect 25 0 21 0;
#X connect 26 0 22 0;
#X connect 27 0 31 0;
#X connect 27 1 32 0;
#X connect 28 0 31 0;
#X connect 28 1 32 0;
#X connect 29 0 31 0;
#X connect 29 1 32 0;
#X connect 30 0 31 0;
#X connect 30 1 32 0;
#X connect 33 0 31 0;
#X connect 33 1 32 0;
#X connect 34 0 31 0;
#X connect 34 1 32 0;
#X connect 35 0 42 0;
#X connect 36 0 43 0;
#X connect 37 0 23 0;
#X connect 38 0 27 0;
#X connect 39 0 28 0;
#X connect 40 0 29 0;
#X connect 41 0 30 0;
#X connect 42 0 33 0;
#X connect 43 0 34 0;
#X restore 156 266 pd **********octave1-2************;
#X obj 127 217 sel 30 32 34 35 37 39 41 42 44 46 47 49 51 53;
#X obj 494 210 sel 54 56 58 59 61 63 65 66 68 70 71 73 75 77 78;
#N canvas 0 76 1440 558 **********octave3-4************ 0;
#X obj 14 17 inlet;
#X obj 106 18 inlet;
#X obj 204 20 inlet;
#X obj 292 18 inlet;
#X obj 370 22 inlet;
#X obj 452 26 inlet;
#X obj 535 26 inlet;
#X obj 612 27 inlet;
#X obj 744 28 inlet;
#X obj 874 28 inlet;
#X obj 1015 32 inlet;
#X obj 1157 33 inlet;
#X obj 16 94 readsf~ 2;
#X obj 108 129 readsf~ 2;
#X obj 204 151 readsf~ 2;
#X obj 290 183 readsf~ 2;
#X obj 374 224 readsf~ 2;
#X obj 452 247 readsf~ 2;
#X obj 535 290 readsf~ 2;
#X obj 614 318 readsf~ 2;
#X obj 746 289 readsf~ 2;
#X obj 879 248 readsf~ 2;
#X obj 1017 220 readsf~ 2;
#X obj 1157 179 readsf~ 2;
#X obj 580 465 outlet~;
#X obj 654 464 outlet~;
#X obj 1301 37 inlet;
#X obj 1443 38 inlet;
#X obj 1295 150 readsf~ 2;
#X obj 1435 109 readsf~ 2;
#X obj 1584 41 inlet;
#X obj 1576 112 readsf~ 2;
#X msg 106 84 open TC-29.wav \, 1;
#X msg 204 114 open TC-28.wav \, 1;
#X msg 291 153 open TC-27.wav \, 1;
#X msg 375 185 open TC-26.wav \, 1;
#X msg 452 221 open TC-25.wav \, 1;
#X msg 536 252 open TC-24.wav \, 1;
#X msg 615 288 open TC-23.wav \, 1;
#X msg 747 250 open TC-22.wav \, 1;
#X msg 879 221 open TC-21.wav \, 1;
#X msg 1018 182 open TC-20.wav \, 1;
#X msg 1158 149 open TC-19.wav \, 1;
#X msg 1296 112 open TC-18.wav \, 1;
#X msg 1436 79 open TC-17.wav \, 1;
#X msg 1577 82 open TC-16.wav \, 1;
#X msg 14 51 open TC-15.wav \, 1;
#X connect 0 0 46 0;
#X connect 1 0 32 0;
#X connect 2 0 33 0;
#X connect 3 0 34 0;
#X connect 4 0 35 0;
#X connect 5 0 36 0;
#X connect 6 0 37 0;
#X connect 7 0 38 0;
#X connect 8 0 39 0;
#X connect 9 0 40 0;
#X connect 10 0 41 0;
#X connect 11 0 42 0;
#X connect 12 0 24 0;
#X connect 12 1 25 0;
#X connect 13 0 24 0;
#X connect 13 1 25 0;
#X connect 14 0 24 0;
#X connect 14 1 25 0;
#X connect 15 0 24 0;
#X connect 15 1 25 0;
#X connect 16 0 24 0;
#X connect 16 1 25 0;
#X connect 17 0 24 0;
#X connect 17 1 25 0;
#X connect 18 0 24 0;
#X connect 18 1 25 0;
#X connect 19 0 24 0;
#X connect 19 1 25 0;
#X connect 20 0 24 0;
#X connect 20 1 25 0;
#X connect 21 0 24 0;
#X connect 21 1 25 0;
#X connect 22 0 24 0;
#X connect 22 1 25 0;
#X connect 23 0 24 0;
#X connect 23 1 25 0;
#X connect 26 0 43 0;
#X connect 27 0 44 0;
#X connect 28 0 24 0;
#X connect 28 1 25 0;
#X connect 29 0 24 0;
#X connect 29 1 25 0;
#X connect 30 0 45 0;
#X connect 31 0 24 0;
#X connect 31 1 25 0;
#X connect 32 0 13 0;
#X connect 33 0 14 0;
#X connect 34 0 15 0;
#X connect 35 0 16 0;
#X connect 36 0 17 0;
#X connect 37 0 18 0;
#X connect 38 0 19 0;
#X connect 39 0 20 0;
#X connect 40 0 21 0;
#X connect 41 0 22 0;
#X connect 42 0 23 0;
#X connect 43 0 28 0;
#X connect 44 0 29 0;
#X connect 45 0 31 0;
#X connect 46 0 12 0;
#X restore 496 264 pd **********octave3-4************;
#X obj 14 10 notein 2;
#X connect 2 0 5 0;
#X connect 3 0 5 1;
#X connect 4 0 7 0;
#X connect 4 0 8 0;
#X connect 5 0 4 0;
#X connect 6 0 0 0;
#X connect 6 1 1 0;
#X connect 7 0 6 0;
#X connect 7 1 6 1;
#X connect 7 2 6 2;
#X connect 7 3 6 3;
#X connect 7 4 6 4;
#X connect 7 5 6 5;
#X connect 7 6 6 6;
#X connect 7 7 6 7;
#X connect 7 8 6 8;
#X connect 7 9 6 9;
#X connect 7 10 6 10;
#X connect 7 11 6 11;
#X connect 7 12 6 12;
#X connect 7 13 6 13;
#X connect 8 0 9 0;
#X connect 8 1 9 1;
#X connect 8 2 9 2;
#X connect 8 3 9 3;
#X connect 8 4 9 4;
#X connect 8 5 9 5;
#X connect 8 6 9 6;
#X connect 8 7 9 7;
#X connect 8 8 9 8;
#X connect 8 9 9 9;
#X connect 8 10 9 10;
#X connect 8 11 9 11;
#X connect 8 12 9 12;
#X connect 8 13 9 13;
#X connect 8 14 9 14;
#X connect 9 0 0 0;
#X connect 9 1 1 0;
#X connect 10 0 2 0;
#X connect 10 1 3 0;
#X restore 194 270 pd TC;
#X obj 194 323 *~;
#X obj 226 323 *~;
#X obj 24 322 *~;
#X obj 112 321 *~;
#X floatatom 130 299 5 0 1 0 - - -;
#X floatatom 244 300 5 0 1 0 - - -;
#X obj 244 158 vsl 15 128 0 1 0 0 empty empty empty 0 -9 0 10 -262144
-1 -1 8255 1;
#X obj 130 160 vsl 15 128 0 1 0 0 empty empty empty 0 -9 0 10 -262144
-1 -1 7620 1;
#X msg 19 572 \; pd dsp \$1;
#X obj 19 547 tgl 15 0 empty empty empty 0 -6 0 8 -262144 -1 -1 1 1
;
#X obj 19 520 loadbang;
#X msg 18 635 midi-dialog 1 0 0 0 0 0 0 0 0 0 0 0 0 0 0 0 0 0 2 2;
#X obj 18 609 loadbang;
#X obj 18 658 s pd;
#X msg 130 131 0.6;
#X msg 244 130 0.65;
#X obj 129 92 loadbang;
#X connect 1 0 26 0;
#X connect 1 1 27 0;
#X connect 2 0 0 0;
#X connect 2 1 0 1;
#X connect 3 0 2 0;
#X connect 4 0 2 0;
#X connect 5 0 2 0;
#X connect 6 0 2 0;
#X connect 7 0 2 0;
#X connect 8 0 2 0;
#X connect 9 0 2 0;
#X connect 10 0 2 0;
#X connect 11 0 10 0;
#X connect 12 0 9 0;
#X connect 13 0 7 0;
#X connect 13 0 22 0;
#X connect 14 0 6 0;
#X connect 14 0 21 0;
#X connect 15 0 5 0;
#X connect 15 0 20 0;
#X connect 16 0 4 0;
#X connect 16 0 19 0;
#X connect 17 0 3 0;
#X connect 17 0 18 0;
#X connect 23 0 24 0;
#X connect 23 1 25 0;
#X connect 24 0 2 0;
#X connect 25 0 2 1;
#X connect 26 0 2 0;
#X connect 27 0 2 1;
#X connect 28 0 26 1;
#X connect 28 0 27 1;
#X connect 29 0 24 1;
#X connect 29 0 25 1;
#X connect 30 0 29 0;
#X connect 31 0 28 0;
#X connect 33 0 32 0;
#X connect 34 0 33 0;
#X connect 35 0 37 0;
#X connect 36 0 35 0;
#X connect 38 0 31 0;
#X connect 39 0 30 0;
#X connect 40 0 38 0;
#X connect 40 0 39 0;
